                         http://www.imdb.com/title/tt1190080/

Plot:

An epic adventure about a global cataclysm that brings an end to the world and tells of the heroic struggle of the survivors.


Info:


General

Unique ID : 235354869829042689268868035402573858204 (0xB10FB2FA958D9F9EA9EB3F1FDA30C59C)
Complete name : 2012 (2009) BRRip[1080p] {5.1} Dual {HINDI+ENGLISH}~SaNRiM~.mkv
Format : Matroska
Format version : Version 4 / Version 2
File size : 4.09 GiB
Duration : 2h 37mn
Overall bit rate mode : Variable
Overall bit rate : 3 712 Kbps
Encoded date : UTC 2013-06-14 14:52:18
Writing application : mkvmerge v6.2.0 ('Promised Land') built on Apr 28 2013 12:22:01
Writing library : libebml v1.3.0 + libmatroska v1.4.0


Video

ID : 1
Format : AVC
Format/Info : Advanced Video Codec
Format profile : High@L4.0
Format settings, CABAC : Yes
Format settings, ReFrames : 3 frames
Codec ID : V_MPEG4/ISO/AVC
Duration : 2h 37mn
Bit rate mode : Variable
Bit rate : 3 008 Kbps
Maximum bit rate : 25.0 Mbps
Width : 1 920 pixels
Height : 1 080 pixels
Display aspect ratio : 16:9
Frame rate mode : Constant
Frame rate : 23.976 fps
Color space : YUV
Chroma subsampling : 4:2:0
Bit depth : 8 bits
Scan type : Progressive
Bits/(Pixel*Frame) : 0.061
Stream size : 3.23 GiB (79%)
Writing library : x264 core 80 r1376kGIT 3feaec2
Encoding settings : cabac=1 / ref=3 / deblock=1:0:0 / analyse=0x3:0x133 / me=umh / subme=7 / psy=1 / psy_rd=1.0:0.0 / mixed_ref=1 / me_range=16 / chroma_me=1 / trellis=1 / 8x8dct=1 / cqm=0 / deadzone=21,11 / fast_pskip=1 / chroma_qp_offset=-2 / threads=3 / sliced_threads=0 / nr=0 / decimate=1 / mbaff=0 / constrained_intra=0 / bframes=3 / b_pyramid=0 / b_adapt=1 / b_bias=0 / direct=3 / wpredb=1 / wpredp=2 / keyint=240 / keyint_min=24 / scenecut=40 / rc_lookahead=40 / rc=2pass / mbtree=1 / bitrate=3008 / ratetol=1.0 / qcomp=0.60 / qpmin=10 / qpmax=51 / qpstep=4 / cplxblur=20.0 / qblur=0.5 / vbv_maxrate=25000 / vbv_bufsize=25000 / ip_ratio=1.40 / aq=1:1.00
Language : English
Default : Yes
Forced : No


Audio #1

ID : 2
Format : AC-3
Format/Info : Audio Coding 3
Mode extension : CM (complete main)
Format settings, Endianness : Big
Codec ID : A_AC3
Duration : 2h 37mn
Bit rate mode : Constant
Bit rate : 320 Kbps
Channel(s) : 6 channels
Channel positions : Front: L C R, Side: L R, LFE
Sampling rate : 48.0 KHz
Bit depth : 16 bits
Compression mode : Lossy
Delay relative to video : 10s 155ms
Stream size : 361 MiB (9%)
Title : ~SaNRiM~
Language : Hindi
Default : Yes
Forced : No


Audio #2

ID : 3
Format : AC-3
Format/Info : Audio Coding 3
Mode extension : CM (complete main)
Format settings, Endianness : Big
Codec ID : A_AC3
Duration : 2h 37mn
Bit rate mode : Constant
Bit rate : 384 Kbps
Channel(s) : 6 channels
Channel positions : Front: L C R, Side: L R, LFE
Sampling rate : 48.0 KHz
Bit depth : 16 bits
Compression mode : Lossy
Stream size : 433 MiB (10%)
Title : ~SaNRiM~
Language : English
Default : No
Forced : No


Text

ID : 4
Format : UTF-8
Codec ID : S_TEXT/UTF8
Codec ID/Info : UTF-8 Plain Text
Title : ~SaNRiM~
Default : Yes
Forced : No


Screen shots:
 
http://i.imgbox.com/admQWH2t.png 
http://i.imgbox.com/abhCOPRT.png 
http://i.imgbox.com/abgNEAtx.png 
http://i.imgbox.com/acylP5VE.png 
http://i.imgbox.com/accitgvQ.png 
http://i.imgbox.com/aczlK6iH.png 
http://i.imgbox.com/adn1zWJr.png 
http://i.imgbox.com/aco4deWN.png 
http://i.imgbox.com/acdlR6yt.png 
http://i.imgbox.com/adxjDaMk.png 
http://i.imgbox.com/abkvLGku.png 
http://i.imgbox.com/abjRZh37.png 
http://i.imgbox.com/adssRNOW.png 
http://i.imgbox.com/aczxMaah.png 
http://i.imgbox.com/aclAfPOg.png 
http://i.imgbox.com/abpLXYr8.png 
http://i.imgbox.com/aduGS0VK.png 
http://i.imgbox.com/acuGmNAu.png 
http://i.imgbox.com/abxlqwgY.png 
http://i.imgbox.com/acquqtX3.png 
http://i.imgbox.com/abwSAOVd.png 
http://i.imgbox.com/abe9VPk8.png 
http://i.imgbox.com/acoJnjgr.png 
http://i.imgbox.com/adlAlKJn.png 
http://i.imgbox.com/acixCaAU.png 
http://i.imgbox.com/acrGlwKC.png 
http://i.imgbox.com/abpGBSbB.png 
http://i.imgbox.com/adeAaD9Z.png

*NO SAMPLE INCLUDED

                      If you like my work please comment
                          Any request? Just PM me
                       Please seed long after download
                         Thank you & enjoy the best
                                 ~SaNRiM~ 